<?xml version="1.0" encoding="UTF-8" standalone="no"?>
<!DOCTYPE svg PUBLIC "-//W3C//DTD SVG 1.1//EN"
 "http://www.w3.org/Graphics/SVG/1.1/DTD/svg11.dtd">
<!-- Generated by graphviz version 2.47.3 (20210619.1520)
 -->
<!-- Title: dependencies Pages: 1 -->
<svg width="360pt" height="174pt"
 viewBox="0.00 0.00 360.00 173.80" xmlns="http://www.w3.org/2000/svg" xmlns:xlink="http://www.w3.org/1999/xlink">
<g id="graph0" class="graph" transform="scale(1 1) rotate(0) translate(4 169.8)">
<title>dependencies</title>
<polygon fill="white" stroke="transparent" points="-4,4 -4,-169.8 356,-169.8 356,4 -4,4"/>
<text text-anchor="middle" x="176" y="-8.2" font-family="sans-serif" font-size="14.00">dependencies</text>
<g id="clust1" class="cluster">
<title>cluster_FavoritesPageModule</title>
<polygon fill="none" stroke="black" stroke-dasharray="1,5" points="8,-32.8 8,-157.8 344,-157.8 344,-32.8 8,-32.8"/>
</g>
<g id="clust2" class="cluster">
<title>cluster_FavoritesPageModule_declarations</title>
<polygon fill="none" stroke="black" points="224,-40.8 224,-92.8 336,-92.8 336,-40.8 224,-40.8"/>
</g>
<g id="clust4" class="cluster">
<title>cluster_FavoritesPageModule_imports</title>
<polygon fill="none" stroke="black" points="16,-40.8 16,-92.8 216,-92.8 216,-40.8 16,-40.8"/>
</g>
<!-- FavoritesPage -->
<g id="node1" class="node">
<title>FavoritesPage</title>
<polygon fill="#ffffb3" stroke="black" points="327.81,-84.8 232.19,-84.8 232.19,-48.8 327.81,-48.8 327.81,-84.8"/>
<text text-anchor="middle" x="280" y="-62.6" font-family="Times,serif" font-size="14.00">FavoritesPage</text>
</g>
<!-- FavoritesPageModule -->
<g id="node2" class="node">
<title>FavoritesPageModule</title>
<polygon fill="#8dd3c7" stroke="black" points="260.36,-149.8 257.36,-153.8 236.36,-153.8 233.36,-149.8 121.64,-149.8 121.64,-113.8 260.36,-113.8 260.36,-149.8"/>
<text text-anchor="middle" x="191" y="-127.6" font-family="Times,serif" font-size="14.00">FavoritesPageModule</text>
</g>
<!-- FavoritesPage&#45;&gt;FavoritesPageModule -->
<g id="edge1" class="edge">
<title>FavoritesPage&#45;&gt;FavoritesPageModule</title>
<path fill="none" stroke="black" d="M246.39,-84.91C246.39,-84.91 246.39,-103.79 246.39,-103.79"/>
<polygon fill="black" stroke="black" points="242.89,-103.79 246.39,-113.79 249.89,-103.79 242.89,-103.79"/>
</g>
<!-- FavoritesPageRoutingModule -->
<g id="node3" class="node">
<title>FavoritesPageRoutingModule</title>
<polygon fill="#8dd3c7" stroke="black" points="207.98,-84.8 204.98,-88.8 183.98,-88.8 180.98,-84.8 24.02,-84.8 24.02,-48.8 207.98,-48.8 207.98,-84.8"/>
<text text-anchor="middle" x="116" y="-62.6" font-family="Times,serif" font-size="14.00">FavoritesPageRoutingModule</text>
</g>
<!-- FavoritesPageRoutingModule&#45;&gt;FavoritesPageModule -->
<g id="edge2" class="edge">
<title>FavoritesPageRoutingModule&#45;&gt;FavoritesPageModule</title>
<path fill="none" stroke="black" d="M164.78,-84.91C164.78,-84.91 164.78,-103.79 164.78,-103.79"/>
<polygon fill="black" stroke="black" points="161.28,-103.79 164.78,-113.79 168.28,-103.79 161.28,-103.79"/>
</g>
</g>
</svg>
