<?xml version="1.0" encoding="UTF-8" standalone="no"?>
<!DOCTYPE svg PUBLIC "-//W3C//DTD SVG 1.1//EN"
 "http://www.w3.org/Graphics/SVG/1.1/DTD/svg11.dtd">
<!-- Generated by graphviz version 2.47.3 (20210619.1520)
 -->
<!-- Title: dependencies Pages: 1 -->
<svg width="298pt" height="174pt"
 viewBox="0.00 0.00 298.00 173.80" xmlns="http://www.w3.org/2000/svg" xmlns:xlink="http://www.w3.org/1999/xlink">
<g id="graph0" class="graph" transform="scale(1 1) rotate(0) translate(4 169.8)">
<title>dependencies</title>
<polygon fill="white" stroke="transparent" points="-4,4 -4,-169.8 294,-169.8 294,4 -4,4"/>
<text text-anchor="middle" x="145" y="-8.2" font-family="sans-serif" font-size="14.00">dependencies</text>
<g id="clust1" class="cluster">
<title>cluster_ListPageModule</title>
<polygon fill="none" stroke="black" stroke-dasharray="1,5" points="8,-32.8 8,-157.8 282,-157.8 282,-32.8 8,-32.8"/>
</g>
<g id="clust4" class="cluster">
<title>cluster_ListPageModule_imports</title>
<polygon fill="none" stroke="black" points="104,-40.8 104,-92.8 274,-92.8 274,-40.8 104,-40.8"/>
</g>
<g id="clust2" class="cluster">
<title>cluster_ListPageModule_declarations</title>
<polygon fill="none" stroke="black" points="16,-40.8 16,-92.8 96,-92.8 96,-40.8 16,-40.8"/>
</g>
<!-- ListPage -->
<g id="node1" class="node">
<title>ListPage</title>
<polygon fill="#ffffb3" stroke="black" points="88.49,-84.8 23.51,-84.8 23.51,-48.8 88.49,-48.8 88.49,-84.8"/>
<text text-anchor="middle" x="56" y="-62.6" font-family="Times,serif" font-size="14.00">ListPage</text>
</g>
<!-- ListPageModule -->
<g id="node2" class="node">
<title>ListPageModule</title>
<polygon fill="#8dd3c7" stroke="black" points="183.04,-149.8 180.04,-153.8 159.04,-153.8 156.04,-149.8 74.96,-149.8 74.96,-113.8 183.04,-113.8 183.04,-149.8"/>
<text text-anchor="middle" x="129" y="-127.6" font-family="Times,serif" font-size="14.00">ListPageModule</text>
</g>
<!-- ListPage&#45;&gt;ListPageModule -->
<g id="edge1" class="edge">
<title>ListPage&#45;&gt;ListPageModule</title>
<path fill="none" stroke="black" d="M81.61,-84.91C81.61,-84.91 81.61,-103.79 81.61,-103.79"/>
<polygon fill="black" stroke="black" points="78.11,-103.79 81.61,-113.79 85.11,-103.79 78.11,-103.79"/>
</g>
<!-- ListPageRoutingModule -->
<g id="node3" class="node">
<title>ListPageRoutingModule</title>
<polygon fill="#8dd3c7" stroke="black" points="265.66,-84.8 262.66,-88.8 241.66,-88.8 238.66,-84.8 112.34,-84.8 112.34,-48.8 265.66,-48.8 265.66,-84.8"/>
<text text-anchor="middle" x="189" y="-62.6" font-family="Times,serif" font-size="14.00">ListPageRoutingModule</text>
</g>
<!-- ListPageRoutingModule&#45;&gt;ListPageModule -->
<g id="edge2" class="edge">
<title>ListPageRoutingModule&#45;&gt;ListPageModule</title>
<path fill="none" stroke="black" d="M147.72,-84.91C147.72,-84.91 147.72,-103.79 147.72,-103.79"/>
<polygon fill="black" stroke="black" points="144.22,-103.79 147.72,-113.79 151.22,-103.79 144.22,-103.79"/>
</g>
</g>
</svg>
