<?xml version="1.0" encoding="UTF-8" standalone="no"?>
<!DOCTYPE svg PUBLIC "-//W3C//DTD SVG 1.1//EN"
 "http://www.w3.org/Graphics/SVG/1.1/DTD/svg11.dtd">
<!-- Generated by graphviz version 2.47.3 (20210619.1520)
 -->
<!-- Title: dependencies Pages: 1 -->
<svg width="378pt" height="174pt"
 viewBox="0.00 0.00 378.00 173.80" xmlns="http://www.w3.org/2000/svg" xmlns:xlink="http://www.w3.org/1999/xlink">
<g id="graph0" class="graph" transform="scale(1 1) rotate(0) translate(4 169.8)">
<title>dependencies</title>
<polygon fill="white" stroke="transparent" points="-4,4 -4,-169.8 374,-169.8 374,4 -4,4"/>
<text text-anchor="middle" x="185" y="-8.2" font-family="sans-serif" font-size="14.00">dependencies</text>
<g id="clust1" class="cluster">
<title>cluster_TourTypesPageModule</title>
<polygon fill="none" stroke="black" stroke-dasharray="1,5" points="8,-32.8 8,-157.8 362,-157.8 362,-32.8 8,-32.8"/>
</g>
<g id="clust4" class="cluster">
<title>cluster_TourTypesPageModule_imports</title>
<polygon fill="none" stroke="black" points="144,-40.8 144,-92.8 354,-92.8 354,-40.8 144,-40.8"/>
</g>
<g id="clust2" class="cluster">
<title>cluster_TourTypesPageModule_declarations</title>
<polygon fill="none" stroke="black" points="16,-40.8 16,-92.8 136,-92.8 136,-40.8 16,-40.8"/>
</g>
<!-- TourTypesPage -->
<g id="node1" class="node">
<title>TourTypesPage</title>
<polygon fill="#ffffb3" stroke="black" points="128.14,-84.8 23.86,-84.8 23.86,-48.8 128.14,-48.8 128.14,-84.8"/>
<text text-anchor="middle" x="76" y="-62.6" font-family="Times,serif" font-size="14.00">TourTypesPage</text>
</g>
<!-- TourTypesPageModule -->
<g id="node2" class="node">
<title>TourTypesPageModule</title>
<polygon fill="#8dd3c7" stroke="black" points="243.19,-149.8 240.19,-153.8 219.19,-153.8 216.19,-149.8 94.81,-149.8 94.81,-113.8 243.19,-113.8 243.19,-149.8"/>
<text text-anchor="middle" x="169" y="-127.6" font-family="Times,serif" font-size="14.00">TourTypesPageModule</text>
</g>
<!-- TourTypesPage&#45;&gt;TourTypesPageModule -->
<g id="edge1" class="edge">
<title>TourTypesPage&#45;&gt;TourTypesPageModule</title>
<path fill="none" stroke="black" d="M111.61,-84.91C111.61,-84.91 111.61,-103.79 111.61,-103.79"/>
<polygon fill="black" stroke="black" points="108.11,-103.79 111.61,-113.79 115.11,-103.79 108.11,-103.79"/>
</g>
<!-- TourTypesPageRoutingModule -->
<g id="node3" class="node">
<title>TourTypesPageRoutingModule</title>
<polygon fill="#8dd3c7" stroke="black" points="345.8,-84.8 342.8,-88.8 321.8,-88.8 318.8,-84.8 152.2,-84.8 152.2,-48.8 345.8,-48.8 345.8,-84.8"/>
<text text-anchor="middle" x="249" y="-62.6" font-family="Times,serif" font-size="14.00">TourTypesPageRoutingModule</text>
</g>
<!-- TourTypesPageRoutingModule&#45;&gt;TourTypesPageModule -->
<g id="edge2" class="edge">
<title>TourTypesPageRoutingModule&#45;&gt;TourTypesPageModule</title>
<path fill="none" stroke="black" d="M197.72,-84.91C197.72,-84.91 197.72,-103.79 197.72,-103.79"/>
<polygon fill="black" stroke="black" points="194.22,-103.79 197.72,-113.79 201.22,-103.79 194.22,-103.79"/>
</g>
</g>
</svg>
