<?xml version="1.0" encoding="UTF-8" standalone="no"?>
<!DOCTYPE svg PUBLIC "-//W3C//DTD SVG 1.1//EN"
 "http://www.w3.org/Graphics/SVG/1.1/DTD/svg11.dtd">
<!-- Generated by graphviz version 2.47.3 (20210619.1520)
 -->
<!-- Title: dependencies Pages: 1 -->
<svg width="348pt" height="174pt"
 viewBox="0.00 0.00 348.00 173.80" xmlns="http://www.w3.org/2000/svg" xmlns:xlink="http://www.w3.org/1999/xlink">
<g id="graph0" class="graph" transform="scale(1 1) rotate(0) translate(4 169.8)">
<title>dependencies</title>
<polygon fill="white" stroke="transparent" points="-4,4 -4,-169.8 344,-169.8 344,4 -4,4"/>
<text text-anchor="middle" x="170" y="-8.2" font-family="sans-serif" font-size="14.00">dependencies</text>
<g id="clust1" class="cluster">
<title>cluster_RegionsPageModule</title>
<polygon fill="none" stroke="black" stroke-dasharray="1,5" points="8,-32.8 8,-157.8 332,-157.8 332,-32.8 8,-32.8"/>
</g>
<g id="clust4" class="cluster">
<title>cluster_RegionsPageModule_imports</title>
<polygon fill="none" stroke="black" points="130,-40.8 130,-92.8 324,-92.8 324,-40.8 130,-40.8"/>
</g>
<g id="clust2" class="cluster">
<title>cluster_RegionsPageModule_declarations</title>
<polygon fill="none" stroke="black" points="16,-40.8 16,-92.8 122,-92.8 122,-40.8 16,-40.8"/>
</g>
<!-- RegionsPage -->
<g id="node1" class="node">
<title>RegionsPage</title>
<polygon fill="#ffffb3" stroke="black" points="113.6,-84.8 24.4,-84.8 24.4,-48.8 113.6,-48.8 113.6,-84.8"/>
<text text-anchor="middle" x="69" y="-62.6" font-family="Times,serif" font-size="14.00">RegionsPage</text>
</g>
<!-- RegionsPageModule -->
<g id="node2" class="node">
<title>RegionsPageModule</title>
<polygon fill="#8dd3c7" stroke="black" points="220.15,-149.8 217.15,-153.8 196.15,-153.8 193.15,-149.8 87.85,-149.8 87.85,-113.8 220.15,-113.8 220.15,-149.8"/>
<text text-anchor="middle" x="154" y="-127.6" font-family="Times,serif" font-size="14.00">RegionsPageModule</text>
</g>
<!-- RegionsPage&#45;&gt;RegionsPageModule -->
<g id="edge1" class="edge">
<title>RegionsPage&#45;&gt;RegionsPageModule</title>
<path fill="none" stroke="black" d="M100.61,-84.91C100.61,-84.91 100.61,-103.79 100.61,-103.79"/>
<polygon fill="black" stroke="black" points="97.11,-103.79 100.61,-113.79 104.11,-103.79 97.11,-103.79"/>
</g>
<!-- RegionsPageRoutingModule -->
<g id="node3" class="node">
<title>RegionsPageRoutingModule</title>
<polygon fill="#8dd3c7" stroke="black" points="315.77,-84.8 312.77,-88.8 291.77,-88.8 288.77,-84.8 138.23,-84.8 138.23,-48.8 315.77,-48.8 315.77,-84.8"/>
<text text-anchor="middle" x="227" y="-62.6" font-family="Times,serif" font-size="14.00">RegionsPageRoutingModule</text>
</g>
<!-- RegionsPageRoutingModule&#45;&gt;RegionsPageModule -->
<g id="edge2" class="edge">
<title>RegionsPageRoutingModule&#45;&gt;RegionsPageModule</title>
<path fill="none" stroke="black" d="M179.22,-84.91C179.22,-84.91 179.22,-103.79 179.22,-103.79"/>
<polygon fill="black" stroke="black" points="175.72,-103.79 179.22,-113.79 182.72,-103.79 175.72,-103.79"/>
</g>
</g>
</svg>
