<?xml version="1.0" encoding="UTF-8" standalone="no"?>
<!DOCTYPE svg PUBLIC "-//W3C//DTD SVG 1.1//EN"
 "http://www.w3.org/Graphics/SVG/1.1/DTD/svg11.dtd">
<!-- Generated by graphviz version 2.47.3 (20210619.1520)
 -->
<!-- Title: dependencies Pages: 1 -->
<svg width="334pt" height="174pt"
 viewBox="0.00 0.00 334.00 173.80" xmlns="http://www.w3.org/2000/svg" xmlns:xlink="http://www.w3.org/1999/xlink">
<g id="graph0" class="graph" transform="scale(1 1) rotate(0) translate(4 169.8)">
<title>dependencies</title>
<polygon fill="white" stroke="transparent" points="-4,4 -4,-169.8 330,-169.8 330,4 -4,4"/>
<text text-anchor="middle" x="163" y="-8.2" font-family="sans-serif" font-size="14.00">dependencies</text>
<g id="clust1" class="cluster">
<title>cluster_DetailsPageModule</title>
<polygon fill="none" stroke="black" stroke-dasharray="1,5" points="8,-32.8 8,-157.8 318,-157.8 318,-32.8 8,-32.8"/>
</g>
<g id="clust2" class="cluster">
<title>cluster_DetailsPageModule_declarations</title>
<polygon fill="none" stroke="black" points="212,-40.8 212,-92.8 310,-92.8 310,-40.8 212,-40.8"/>
</g>
<g id="clust4" class="cluster">
<title>cluster_DetailsPageModule_imports</title>
<polygon fill="none" stroke="black" points="16,-40.8 16,-92.8 204,-92.8 204,-40.8 16,-40.8"/>
</g>
<!-- DetailsPage -->
<g id="node1" class="node">
<title>DetailsPage</title>
<polygon fill="#ffffb3" stroke="black" points="302.36,-84.8 219.64,-84.8 219.64,-48.8 302.36,-48.8 302.36,-84.8"/>
<text text-anchor="middle" x="261" y="-62.6" font-family="Times,serif" font-size="14.00">DetailsPage</text>
</g>
<!-- DetailsPageModule -->
<g id="node2" class="node">
<title>DetailsPageModule</title>
<polygon fill="#8dd3c7" stroke="black" points="241.41,-149.8 238.41,-153.8 217.41,-153.8 214.41,-149.8 114.59,-149.8 114.59,-113.8 241.41,-113.8 241.41,-149.8"/>
<text text-anchor="middle" x="178" y="-127.6" font-family="Times,serif" font-size="14.00">DetailsPageModule</text>
</g>
<!-- DetailsPage&#45;&gt;DetailsPageModule -->
<g id="edge1" class="edge">
<title>DetailsPage&#45;&gt;DetailsPageModule</title>
<path fill="none" stroke="black" d="M230.39,-84.91C230.39,-84.91 230.39,-103.79 230.39,-103.79"/>
<polygon fill="black" stroke="black" points="226.89,-103.79 230.39,-113.79 233.89,-103.79 226.89,-103.79"/>
</g>
<!-- DetailsPageRoutingModule -->
<g id="node3" class="node">
<title>DetailsPageRoutingModule</title>
<polygon fill="#8dd3c7" stroke="black" points="195.53,-84.8 192.53,-88.8 171.53,-88.8 168.53,-84.8 24.47,-84.8 24.47,-48.8 195.53,-48.8 195.53,-84.8"/>
<text text-anchor="middle" x="110" y="-62.6" font-family="Times,serif" font-size="14.00">DetailsPageRoutingModule</text>
</g>
<!-- DetailsPageRoutingModule&#45;&gt;DetailsPageModule -->
<g id="edge2" class="edge">
<title>DetailsPageRoutingModule&#45;&gt;DetailsPageModule</title>
<path fill="none" stroke="black" d="M155.28,-84.91C155.28,-84.91 155.28,-103.79 155.28,-103.79"/>
<polygon fill="black" stroke="black" points="151.78,-103.79 155.28,-113.79 158.78,-103.79 151.78,-103.79"/>
</g>
</g>
</svg>
